<svg xmlns="http://www.w3.org/2000/svg" width="106.09" height="98" viewBox="0 0 106.09 98">
    <defs>
        <clipPath id="iiygua4qxa">
            <path data-name="Rectangle 1660" style="fill:none" d="M0 0h106.09v98H0z"/>
        </clipPath>
    </defs>
    <g data-name="Group 6246">
        <g data-name="Group 6228">
            <g data-name="Group 6227" style="clip-path:url(#iiygua4qxa)">
                <path data-name="Path 1716" d="M37.325 15.155c1.046 0 6.465-9.685 7.661-11.227.414-.536.5-.643.183-1.025-.329-.4-1.025-.284-1.805-.062-1.456.418-3.253.021-5.281-.556-4.061-1.151-9.918-2.758-12.274 1.451-.228.407-.07.075.383.568 1.235 1.347 6.439 10.85 7.5 10.85z" transform="translate(18.28 .71)" style="fill:#a4d7ef"/>
                <path data-name="Path 1717" d="M37.325 15.155c1.046 0 6.465-9.685 7.661-11.227.414-.536.5-.643.183-1.025-.329-.4-1.025-.284-1.805-.062-1.456.418-3.253.021-5.281-.556-4.061-1.151-9.918-2.758-12.274 1.451-.228.407-.07.075.383.568 1.235 1.347 6.439 10.85 7.5 10.85z" transform="translate(18.28 .71)" style="stroke:#03002f;stroke-miterlimit:10;stroke-width:2px;fill:none"/>
                <path data-name="Path 1718" d="M45.378 8.856a10.162 10.162 0 0 0-10.267 0C22.92 15.4 18 28.106 18 34.348c0 12.608 9.962 17.286 22.245 17.286s22.245-4.5 22.245-17.111c0-6.061-5.239-18.444-17.111-25.667" transform="translate(12.8 5.298)" style="fill:#a4d7ef"/>
                <path data-name="Path 1719" d="M45.378 8.856a10.162 10.162 0 0 0-10.267 0C22.92 15.4 18 28.106 18 34.348c0 12.608 9.962 17.286 22.245 17.286s22.245-4.5 22.245-17.111c0-6.061-5.24-18.445-17.112-25.667z" transform="translate(12.8 5.298)" style="stroke:#03002f;stroke-miterlimit:10;stroke-width:2px;fill:none"/>
                <path data-name="Path 1720" d="m69.512 29.25-4.5 8.992a5.1 5.1 0 0 0-3.446 1.487l-5.548 5.548c-1.665 1.665-6.614 1.774-8.619 3.778-.89.89-5.06 5.062-7.111 7.111C37.366 59.09 37 64.051 37 66.895v13.689h22.245c0-3.636-.1-6.978 1.762-8.835 1.312-1.312 8.429-8.314 13.5-13.318a11.967 11.967 0 0 0 3.563-8.523V17.272c-3.422 0-9.731 2.888-8.556 11.978" transform="translate(26.312 12.282)" style="fill:#fff"/>
                <path data-name="Path 1721" d="M50 80.584c0-3.636-.1-6.978 1.762-8.835 1.312-1.312 8.427-8.314 13.5-13.318a11.974 11.974 0 0 0 3.563-8.523V17.272c-3.422 0-9.733 2.887-8.556 11.978l-3.422 8.556" transform="translate(35.556 12.282)" style="stroke:#03002f;stroke-miterlimit:10;stroke-width:2px;fill:none"/>
                <path data-name="Path 1722" d="M58.441 48.668 68.829 38.28a5.134 5.134 0 0 0-7.26-7.26l-5.548 5.549c-1.665 1.663-6.614 1.773-8.619 3.778-.89.89-5.06 5.062-7.111 7.111C37.368 50.383 37 55.343 37 58.187v13.689" transform="translate(26.312 20.99)" style="stroke:#03002f;stroke-miterlimit:10;stroke-width:2px;fill:none"/>
                <path data-name="Rectangle 1658" transform="translate(59.891 89.444)" style="fill:#e9eaeb" d="M0 0h30.694v8.556H0z"/>
                <path data-name="Path 1723" d="M65.7 60.828v-8.556H35v8.556" transform="translate(24.89 37.172)" style="stroke:#03002f;stroke-miterlimit:10;stroke-width:2px;fill:none"/>
                <path data-name="Line 59" transform="translate(65.023 96.288)" style="stroke:#03002f;stroke-miterlimit:10;stroke-width:2px;fill:none" d="M0 0h5.133"/>
                <path data-name="Path 1724" d="m9.556 29.25 4.5 8.992a5.1 5.1 0 0 1 3.444 1.487l5.547 5.548c1.665 1.665 6.614 1.774 8.619 3.778.89.89 5.06 5.062 7.111 7.111 2.924 2.924 3.291 7.885 3.291 10.729v13.689H19.822c0-3.636.1-6.978-1.762-8.835-1.312-1.312-8.429-8.314-13.5-13.318A11.967 11.967 0 0 1 1 49.908V17.272c3.422 0 9.731 2.888 8.556 11.978" transform="translate(.711 12.282)" style="fill:#fff"/>
                <path data-name="Path 1725" d="M19.822 80.584c0-3.636.1-6.978-1.762-8.835-1.312-1.312-8.427-8.314-13.5-13.318A11.974 11.974 0 0 1 1 49.908V17.272c3.422 0 9.733 2.887 8.556 11.978l3.422 8.556" transform="translate(.711 12.282)" style="stroke:#03002f;stroke-miterlimit:10;stroke-width:2px;fill:none"/>
                <path data-name="Path 1726" d="M17.412 48.668 7.024 38.28a5.134 5.134 0 0 1 7.26-7.26l5.547 5.549c1.665 1.663 6.614 1.773 8.619 3.778.89.89 5.06 5.062 7.111 7.111 2.924 2.924 3.291 7.885 3.291 10.729v13.689" transform="translate(3.925 20.99)" style="stroke:#03002f;stroke-miterlimit:10;stroke-width:2px;fill:none"/>
                <path data-name="Rectangle 1659" transform="translate(15.4 89.444)" style="fill:#e9eaeb" d="M0 0h30.8v8.556H0z"/>
                <path data-name="Path 1727" d="M9 60.828v-8.556h30.8v8.556" transform="translate(6.4 37.172)" style="stroke:#03002f;stroke-miterlimit:10;stroke-width:2px;fill:none"/>
                <path data-name="Line 60" transform="translate(35.934 96.288)" style="stroke:#03002f;stroke-miterlimit:10;stroke-width:2px;fill:none" d="M5.133 0H0"/>
            </g>
        </g>
        <text data-name="`" transform="translate(48.098 45.895)" style="fill:#03002f;font-size:18px;font-family:RupeeForadian,Rupee Foradian"><tspan x="0" y="0">`</tspan></text>
    </g>
</svg>
