<svg xmlns="http://www.w3.org/2000/svg" width="116" height="120" viewBox="0 0 116 120">
    <defs>
        <clipPath id="c89f8vzgxa">
            <path data-name="Rectangle 1657" transform="translate(0 -.458)" style="fill:none" d="M0 0h116v120H0z"/>
        </clipPath>
    </defs>
    <g data-name="Group 6226">
        <path data-name="Path 1701" d="m30.843 55.447-8.661-9.841-4.472 5.749 4.946 6.139z" transform="translate(18.338 48.182)" style="fill:#fff"/>
        <g data-name="Group 6225">
            <g data-name="Group 6224" transform="translate(0 .458)" style="clip-path:url(#c89f8vzgxa)">
                <path data-name="Path 1702" d="m87.47 31.417-2.355-4.77c-3.207-3.2-6.778-8.086-11.213-9.023S55.766 12.08 47.783 14.81 30.077 32.972 26.324 34.847 12.338 39.707 9.356 46.87s0 12.023 2.128 15.179 5.458 8.272 4.267 10.83-4.948 7.93-5.546 9.549c1.287 3.944 6.139 14.325 6.139 14.325l8.188-2.046a52 52 0 0 1-4.282-11.513c1.981-1.981 7.543-8.6 14.354-15.412 2.967-2.967 3.035-6.7 2.061-10.2h.01c6.405-2.527 12.925 1.055 18.555-6.55 2.531 2.5 4.987 4.92 4.987 4.92l-8.057 9.592 8.057 2.814 8.953-9.721L66.054 47.2l7.332-3.837c2.306 4.875 4.427 5.114 8.5 6.115 3.147.774 5.992.057 9.156-.814-1.363-7.247-1.525-13.151-3.571-17.243" transform="translate(8.276 14.604)" style="fill:#fff"/>
                <path data-name="Path 1703" d="M54.084 22.488c2.046 4.093 2.208 10 3.571 17.243-3.164.872-6.008 1.588-9.156.814-4.072-1-6.193-1.24-8.5-6.115" transform="translate(41.663 23.532)" style="stroke-width:2px;stroke:#03002f;stroke-linecap:round;stroke-linejoin:round;fill:none"/>
                <path data-name="Path 1704" d="M43 23.118c3.811-.211 12.882-1.14 18.975-5.225" transform="translate(44.803 18.724)" style="stroke-width:2px;stroke:#03002f;stroke-linecap:round;stroke-linejoin:round;fill:none"/>
                <path data-name="Path 1705" d="M85.114 26.648c-3.207-3.207-6.778-8.088-11.211-9.025s-18.136-5.542-26.123-2.814-17.705 18.163-21.456 20.039-13.986 4.861-16.97 12.023 0 12.023 2.132 15.177 5.456 8.272 4.263 10.83-4.946 7.93-5.542 9.551c1.283 3.941 6.139 14.325 6.139 14.325" transform="translate(8.276 14.604)" style="stroke-width:2px;stroke:#03002f;stroke-linecap:round;stroke-linejoin:round;fill:none"/>
                <path data-name="Path 1706" d="M25.609 30.539c2.046 3.326 9.232 13.437 2.781 19.888-6.811 6.812-12.373 13.43-14.356 15.413a52.048 52.048 0 0 0 4.283 11.511" transform="translate(14.49 31.958)" style="stroke-width:2px;stroke:#03002f;stroke-linecap:round;stroke-linejoin:round;fill:none"/>
                <path data-name="Path 1707" d="M22.06 38.622c6.405-2.525 12.93 1.056 18.557-6.549" transform="translate(22.889 33.563)" style="stroke-width:2px;stroke:#03002f;stroke-linecap:round;stroke-linejoin:round;fill:none"/>
                <path data-name="Path 1708" d="M28.565 29.539A4830.61 4830.61 0 0 0 38.8 39.642l-8.06 9.594" transform="translate(29.696 30.911)" style="stroke-width:2px;stroke:#03002f;stroke-linecap:round;stroke-linejoin:round;fill:none"/>
                <path data-name="Path 1709" d="m38.335 28.289 4.183 15.348-8.953 9.721" transform="translate(34.929 29.603)" style="stroke-width:2px;stroke:#03002f;stroke-linecap:round;stroke-linejoin:round;fill:none"/>
                <path data-name="Line 53" transform="translate(74.33 57.963)" style="stroke-width:2px;stroke:#03002f;stroke-linecap:round;stroke-linejoin:round;fill:none" d="M7.335 0 0 3.837"/>
                <path data-name="Path 1710" d="M18.117 38.591s-7.517 3.27-11.356 2.687S-1.957 36.07 3.3 30.816c6.3-6.3-1.778-11.2-1.778-11.2" transform="translate(.85 20.523)" style="stroke-width:2px;stroke:#03002f;stroke-linecap:round;stroke-linejoin:round;fill:none"/>
                <path data-name="Line 54" transform="translate(36.048 99.077)" style="stroke-width:2px;stroke:#03002f;stroke-linecap:round;stroke-linejoin:round;fill:none" d="m0 0 4.946 6.139"/>
                <path data-name="Line 55" transform="translate(40.519 93.328)" style="stroke-width:2px;stroke:#03002f;stroke-linecap:round;stroke-linejoin:round;fill:none" d="m0 0 8.661 9.841"/>
                <path data-name="Path 1711" d="M107.056 80.436V35.414l-8.186 2.047-6.139 6.139-8.186 2.046-8.186 6.139H66.127l-8.186 6.139-8.186 2.046-8.186 6.139-8.186 2.046L25.2 72.25l-8.188 2.05-9.551 6.136z" transform="translate(7.612 37.059)" style="fill:#a4d7ef"/>
                <path data-name="Path 1712" d="M107.056 80.436V35.414l-8.186 2.047-6.139 6.139-8.186 2.046-8.186 6.139H66.127l-8.186 6.139-8.186 2.046-8.186 6.139-8.186 2.046L25.2 72.25l-8.188 2.05-9.551 6.136z" transform="translate(7.612 37.059)" style="stroke-width:2px;stroke:#03002f;stroke-linecap:round;stroke-linejoin:round;fill:none"/>
            </g>
        </g>
    </g>
</svg>
